<svg aria-hidden="true" style="position: absolute; width: 0; height: 0; overflow: hidden;" version="1.1" xmlns="http://www.w3.org/2000/svg" xmlns:xlink="http://www.w3.org/1999/xlink">
<defs>
<symbol id="icon-home" viewBox="0 0 32 32">
<path d="M12.8 29.6v-9.6h6.4v9.6h8v-12.8h4.8l-16-14.4-16 14.4h4.8v12.8z"></path>
</symbol>
<symbol id="icon-money" viewBox="0 0 32 32">
<path d="M14.7 28v-2.867q-1.767-0.4-3.050-1.533t-1.883-3.2l2.467-1q0.5 1.6 1.483 2.433t2.583 0.833q1.367 0 2.317-0.617t0.95-1.917q0-1.167-0.733-1.85t-3.4-1.55q-2.867-0.9-3.933-2.15t-1.067-3.050q0-2.167 1.4-3.367t2.867-1.367v-2.8h2.667v2.8q1.667 0.267 2.75 1.217t1.583 2.317l-2.467 1.067q-0.4-1.067-1.133-1.6t-2-0.533q-1.467 0-2.233 0.65t-0.767 1.617q0 1.1 1 1.733t3.467 1.333q2.3 0.667 3.483 2.117t1.183 3.35q0 2.367-1.4 3.6t-3.467 1.533v2.8h-2.667z"></path>
</symbol>
<symbol id="icon-chart" viewBox="0 0 32 32">
<path d="M4 24q-1.1 0-1.883-0.783t-0.783-1.883 0.783-1.883 1.883-0.783h0.35q0.15 0 0.317 0.067l6.067-6.067q-0.067-0.167-0.067-0.317v-0.35q0-1.1 0.783-1.883t1.883-0.783 1.883 0.783 0.783 1.883q0 0.067-0.067 0.667l3.4 3.4q0.167-0.067 0.317-0.067h0.7q0.15 0 0.317 0.067l4.733-4.733q-0.067-0.167-0.067-0.317v-0.35q0-1.1 0.783-1.883t1.883-0.783 1.883 0.783 0.783 1.883-0.783 1.883-1.883 0.783h-0.35q-0.15 0-0.317-0.067l-4.733 4.733q0.067 0.167 0.067 0.317v0.35q0 1.1-0.783 1.883t-1.883 0.783-1.883-0.783-0.783-1.883v-0.35q0-0.15 0.067-0.317l-3.4-3.4q-0.167 0.067-0.317 0.067h-0.35q-0.067 0-0.667-0.067l-6.067 6.067q0.067 0.167 0.067 0.317v0.35q0 1.1-0.783 1.883t-1.883 0.783z"></path>
</symbol>
</defs>
</svg>
